<?xml version="1.0" encoding="utf-8"?>
<!-- Generator: Adobe Illustrator 26.1.0, SVG Export Plug-In . SVG Version: 6.00 Build 0)  -->
<svg version="1.1" id="Layer_1" xmlns="http://www.w3.org/2000/svg" xmlns:xlink="http://www.w3.org/1999/xlink" x="0px" y="0px"
	 viewBox="0 0 800 800" style="enable-background:new 0 0 800 800;" xml:space="preserve">
<style type="text/css">
	.st0{fill:#FFFFFF;}
	.st1{fill:#FF3E4C;}
</style>
<g>
	<g>
		<path class="st0" d="M0,0v800h800V0H0z M233.3,666.7c-36.8,0-66.7-29.8-66.7-66.7s29.8-66.7,66.7-66.7c36.8,0,66.7,29.8,66.7,66.7
			S270.2,666.7,233.3,666.7z M233.3,266.7c-36.8,0-66.7-29.8-66.7-66.7s29.8-66.7,66.7-66.7c36.8,0,66.7,29.8,66.7,66.7
			S270.2,266.7,233.3,266.7z M566.7,666.7c-36.8,0-66.7-29.8-66.7-66.7s29.8-66.7,66.7-66.7c36.8,0,66.7,29.8,66.7,66.7
			S603.5,666.7,566.7,666.7z M566.7,266.7c-36.8,0-66.7-29.8-66.7-66.7s29.8-66.7,66.7-66.7c36.8,0,66.7,29.8,66.7,66.7
			S603.5,266.7,566.7,266.7z"/>
		<path class="st1" d="M300,200c0,36.8-29.8,66.7-66.7,66.7c-36.8,0-66.7-29.8-66.7-66.7s29.8-66.7,66.7-66.7
			C270.2,133.3,300,163.2,300,200z"/>
		<path class="st1" d="M300,600c0,36.8-29.8,66.7-66.7,66.7c-36.8,0-66.7-29.8-66.7-66.7s29.8-66.7,66.7-66.7
			C270.2,533.3,300,563.2,300,600z"/>
		<path class="st1" d="M633.3,600c0,36.8-29.8,66.7-66.7,66.7c-36.8,0-66.7-29.8-66.7-66.7s29.8-66.7,66.7-66.7
			C603.5,533.3,633.3,563.2,633.3,600z"/>
		<path class="st1" d="M633.3,200c0,36.8-29.8,66.7-66.7,66.7c-36.8,0-66.7-29.8-66.7-66.7s29.8-66.7,66.7-66.7
			C603.5,133.3,633.3,163.2,633.3,200z"/>
	</g>
</g>
</svg>
